<svg width="529" height="324" viewBox="0 0 529 324" fill="none" xmlns="http://www.w3.org/2000/svg">
<g clip-path="url(#clip0)">
<path opacity="0.18" d="M521.509 236.906C520.252 239.587 518.805 242.176 517.18 244.653C516.904 245.111 516.603 245.556 516.301 245.961C500.558 269.07 471.696 280.427 444.435 284.17C413.762 288.37 382.211 285.544 352.142 293.329C331.506 298.655 312.247 308.809 291.794 314.88C267.813 322.012 242.664 323.399 217.764 323.87C163.083 324.878 106.96 321.253 56.8189 298.158C37.8881 289.443 19.1803 276.999 8.75065 258.484C7.51539 256.305 6.41143 254.055 5.44464 251.745C5.03795 250.79 4.6575 249.821 4.30328 248.853C-5.43106 222.16 2.9389 191.54 13.6441 165.004C24.7632 137.548 38.4223 111.186 54.4443 86.2577C65.1013 69.6304 76.819 53.7035 89.5247 38.5756C102.644 23.0306 114.451 6.77888 134.523 3.31133C159.895 -1.08526 184.887 8.10047 209.813 11.725C254.641 18.2676 299.771 6.16387 344.835 1.51867C389.899 -3.12654 439.83 1.51866 472.628 34.5454C489.407 51.4121 499.928 74.0493 508.049 96.9744C511.04 105.41 513.743 113.95 516.157 122.595C520.379 137.631 523.734 152.896 526.206 168.314C529.879 191.305 531.375 216.049 521.509 236.906Z" fill="#373744"/>
<path opacity="0.25" d="M521.509 236.654C520.251 239.335 518.805 241.923 517.18 244.4C477.035 245.77 436.882 247.152 396.72 248.548C274.831 252.696 152.916 256.923 30.9873 255.313C21.8039 255.195 11.8728 254.777 4.60483 248.771C4.51459 248.685 4.41812 248.606 4.31621 248.535C-0.682149 234.835 -0.931412 220.101 1.46938 205.354C3.75209 191.432 8.42248 177.561 13.6439 164.633C19.1451 151.06 25.2674 137.787 32.0106 124.815C38.8674 111.495 46.3453 98.558 54.4441 86.005C68.3031 83.6299 82.5397 84.8005 95.8217 89.4072C108.941 93.9084 121.312 100.844 134.733 104.219C163.319 111.39 193.034 101.746 222.394 101.197C252.374 100.782 281.741 109.681 306.422 126.66C320.328 136.199 332.909 148.277 348.285 154.78C366.153 162.343 386.409 161.65 404.972 156.337C423.536 151.025 440.722 141.381 457.449 131.24C470.922 123.049 490.522 109.99 506.724 116.376C510.216 117.772 513.421 119.794 516.183 122.342C520.405 137.378 523.76 152.643 526.232 168.062C529.879 191.052 531.375 215.796 521.509 236.654Z" fill="#373744"/>
<path d="M516.301 246C500.558 269.108 471.696 280.466 444.435 284.208C413.762 288.409 382.211 285.582 352.142 293.368C331.506 298.693 312.247 308.847 291.794 314.919C267.813 322.05 242.663 323.437 217.763 323.908C163.083 324.916 106.96 321.291 56.8188 298.196C37.888 289.482 19.1802 277.038 8.75054 258.522L3.89648 246.536L516.301 246Z" fill="url(#paint0_linear)"/>
<path d="M351.932 191.461H167.767V224.03H351.932V191.461Z" fill="#3E3E54"/>
<path d="M351.932 191.461H167.767V224.03H351.932V191.461Z" fill="url(#paint1_linear)"/>
<path d="M113.139 149.759C110.061 147.021 106.307 145.151 102.263 144.342C98.9966 143.504 95.2446 143.033 92.4633 144.957C91.4725 145.713 90.6596 146.677 90.0817 147.78C89.5038 148.883 89.1749 150.099 89.118 151.342C89.0149 153.826 89.3981 156.306 90.2462 158.644C90.5271 159.821 91.1208 160.902 91.9648 161.771C93.1805 162.649 94.6494 163.108 96.1498 163.08C103.327 163.466 110.522 163.4 117.691 162.883C120.971 162.713 121.365 159.22 119.397 157.191C117.075 154.81 115.382 152.049 113.139 149.759Z" fill="#373744"/>
<path d="M113.257 149.916C110.195 147.197 106.465 145.337 102.447 144.525C99.1671 143.687 95.4151 143.216 92.6469 145.14C91.6579 145.896 90.8454 146.858 90.2655 147.958C89.6857 149.058 89.3523 150.271 89.2885 151.512C89.1898 154.001 89.5775 156.485 90.4298 158.827C90.7137 160.003 91.307 161.083 92.1484 161.954C93.367 162.826 94.834 163.284 96.3334 163.263C103.511 163.644 110.706 163.574 117.875 163.053C121.142 162.883 121.535 159.402 119.58 157.374C117.311 155.006 115.566 152.193 113.257 149.916Z" fill="url(#paint2_linear)"/>
<path d="M207.123 224.763C207.123 234.616 210.219 243.945 203.188 247.007C201.351 247.792 191.249 247.282 189.203 247.282C179.298 247.282 171.256 237.207 171.256 224.789C171.256 212.371 179.298 202.296 189.203 202.296C191.053 202.296 201.285 201.929 202.965 202.583C210.219 205.397 207.123 214.661 207.123 224.763Z" fill="#3E3E54"/>
<path d="M207.123 224.763C207.123 234.616 210.219 243.946 203.188 247.007C201.351 247.793 191.249 247.282 189.203 247.282C179.298 247.282 171.256 237.207 171.256 224.789C171.256 212.371 179.298 202.296 189.203 202.296C191.053 202.296 201.718 201.995 203.398 202.649C210.705 205.475 207.123 214.661 207.123 224.763Z" fill="#3E3E54"/>
<path d="M207.124 224.763C207.124 234.616 209.944 243.828 202.899 246.876C201.076 247.661 191.237 247.256 189.19 247.256C179.285 247.256 171.243 237.18 171.243 224.763C171.243 212.345 179.285 202.269 189.19 202.269C191.04 202.269 200.997 201.824 202.637 202.479C209.944 205.318 207.124 214.661 207.124 224.763Z" fill="url(#paint3_linear)"/>
<path d="M200.355 247.256C210.259 247.256 218.288 237.186 218.288 224.763C218.288 212.34 210.259 202.27 200.355 202.27C190.45 202.27 182.421 212.34 182.421 224.763C182.421 237.186 190.45 247.256 200.355 247.256Z" fill="#3E3E54"/>
<path d="M200.761 240.308C207.746 240.308 213.408 233.213 213.408 224.462C213.408 215.71 207.746 208.616 200.761 208.616C193.776 208.616 188.114 215.71 188.114 224.462C188.114 233.213 193.776 240.308 200.761 240.308Z" fill="#373744"/>
<path d="M201.469 232.038C204.867 232.038 207.622 228.587 207.622 224.331C207.622 220.074 204.867 216.624 201.469 216.624C198.071 216.624 195.316 220.074 195.316 224.331C195.316 228.587 198.071 232.038 201.469 232.038Z" fill="url(#paint4_linear)"/>
<path d="M337.738 223.088C337.738 232.941 340.821 242.271 333.802 245.332C331.965 246.118 321.85 245.607 319.817 245.607C309.899 245.607 301.87 235.532 301.87 223.114C301.87 210.696 309.925 200.608 319.804 200.608C321.654 200.608 331.873 200.241 333.566 200.896C340.873 203.722 337.738 212.986 337.738 223.088Z" fill="#3E3E54"/>
<path d="M337.738 223.088C337.738 232.941 340.821 242.271 333.802 245.332C331.965 246.118 321.85 245.607 319.817 245.607C309.899 245.607 301.87 235.532 301.87 223.114C301.87 210.696 309.925 200.608 319.804 200.608C321.654 200.608 332.319 200.307 333.999 200.961C341.319 203.787 337.738 212.986 337.738 223.088Z" fill="#3E3E54"/>
<path d="M337.737 223.088C337.737 232.941 340.558 242.153 333.513 245.188C331.689 245.987 321.837 245.581 319.803 245.581C309.885 245.581 301.856 235.505 301.856 223.088C301.856 210.67 309.925 200.607 319.803 200.607C321.653 200.607 331.61 200.163 333.25 200.817C340.558 203.643 337.737 212.986 337.737 223.088Z" fill="url(#paint5_linear)"/>
<path d="M330.968 245.568C340.872 245.568 348.902 235.497 348.902 223.075C348.902 210.652 340.872 200.581 330.968 200.581C321.063 200.581 313.034 210.652 313.034 223.075C313.034 235.497 321.063 245.568 330.968 245.568Z" fill="#3E3E54"/>
<path d="M331.374 238.633C338.359 238.633 344.021 231.538 344.021 222.787C344.021 214.035 338.359 206.941 331.374 206.941C324.39 206.941 318.728 214.035 318.728 222.787C318.728 231.538 324.39 238.633 331.374 238.633Z" fill="#373744"/>
<path d="M332.083 230.363C335.481 230.363 338.235 226.912 338.235 222.656C338.235 218.399 335.481 214.949 332.083 214.949C328.684 214.949 325.93 218.399 325.93 222.656C325.93 226.912 328.684 230.363 332.083 230.363Z" fill="url(#paint6_linear)"/>
<path d="M128.37 224.763C128.37 234.616 131.466 243.945 124.434 247.007C122.611 247.792 112.496 247.282 110.449 247.282C100.544 247.282 92.5156 237.207 92.5156 224.789C92.5156 212.371 100.544 202.296 110.449 202.296C112.299 202.296 122.532 201.929 124.211 202.583C131.505 205.397 128.37 214.661 128.37 224.763Z" fill="#3E3E54"/>
<path d="M128.37 224.763C128.37 234.616 131.466 243.946 124.434 247.007C122.611 247.793 112.496 247.282 110.449 247.282C100.544 247.282 92.5156 237.207 92.5156 224.789C92.5156 212.371 100.544 202.296 110.449 202.296C112.299 202.296 122.978 201.995 124.657 202.649C131.952 205.475 128.37 214.661 128.37 224.763Z" fill="#3E3E54"/>
<path d="M128.37 224.763C128.37 234.616 131.191 243.828 124.146 246.876C122.323 247.661 112.483 247.256 110.437 247.256C100.532 247.256 92.5029 237.18 92.5029 224.763C92.5029 212.345 100.532 202.269 110.437 202.269C112.286 202.269 122.244 201.824 123.884 202.479C131.204 205.318 128.37 214.661 128.37 224.763Z" fill="url(#paint7_linear)"/>
<path d="M121.601 247.256C131.505 247.256 139.535 237.186 139.535 224.763C139.535 212.34 131.505 202.27 121.601 202.27C111.696 202.27 103.667 212.34 103.667 224.763C103.667 237.186 111.696 247.256 121.601 247.256Z" fill="#3E3E54"/>
<path d="M122.007 240.308C128.992 240.308 134.654 233.213 134.654 224.462C134.654 215.71 128.992 208.616 122.007 208.616C115.023 208.616 109.36 215.71 109.36 224.462C109.36 233.213 115.023 240.308 122.007 240.308Z" fill="#373744"/>
<path d="M122.715 232.038C126.113 232.038 128.868 228.587 128.868 224.331C128.868 220.074 126.113 216.624 122.715 216.624C119.317 216.624 116.562 220.074 116.562 224.331C116.562 228.587 119.317 232.038 122.715 232.038Z" fill="url(#paint8_linear)"/>
<path d="M258.984 223.088C258.984 232.941 262.08 242.271 255.048 245.332C253.211 246.118 243.11 245.607 241.063 245.607C231.158 245.607 223.116 235.532 223.116 223.114C223.116 210.696 231.211 200.608 241.05 200.608C242.9 200.608 253.133 200.241 254.812 200.896C262.119 203.722 258.984 212.986 258.984 223.088Z" fill="#3E3E54"/>
<path d="M258.984 223.088C258.984 232.941 262.08 242.271 255.048 245.332C253.211 246.118 243.11 245.607 241.063 245.607C231.158 245.607 223.116 235.532 223.116 223.114C223.116 210.696 231.211 200.608 241.05 200.608C242.9 200.608 253.566 200.307 255.258 200.961C262.565 203.787 258.984 212.986 258.984 223.088Z" fill="#3E3E54"/>
<path d="M258.983 223.088C258.983 232.941 261.804 242.153 254.759 245.188C252.935 245.987 243.096 245.581 241.049 245.581C231.145 245.581 223.103 235.505 223.103 223.088C223.103 210.67 231.21 200.607 241.049 200.607C242.899 200.607 252.857 200.163 254.496 200.817C261.817 203.643 258.983 212.986 258.983 223.088Z" fill="url(#paint9_linear)"/>
<path d="M252.214 245.568C262.119 245.568 270.148 235.497 270.148 223.075C270.148 210.652 262.119 200.581 252.214 200.581C242.309 200.581 234.28 210.652 234.28 223.075C234.28 235.497 242.309 245.568 252.214 245.568Z" fill="#3E3E54"/>
<path d="M252.62 238.633C259.605 238.633 265.267 231.538 265.267 222.787C265.267 214.035 259.605 206.941 252.62 206.941C245.636 206.941 239.974 214.035 239.974 222.787C239.974 231.538 245.636 238.633 252.62 238.633Z" fill="#373744"/>
<path d="M253.33 230.363C256.728 230.363 259.482 226.912 259.482 222.656C259.482 218.399 256.728 214.949 253.33 214.949C249.931 214.949 247.177 218.399 247.177 222.656C247.177 226.912 249.931 230.363 253.33 230.363Z" fill="url(#paint10_linear)"/>
<path d="M357.56 168.47V224.03H351.906C352.06 222.999 352.135 221.958 352.129 220.916C352.129 214.582 349.607 208.508 345.116 204.03C340.626 199.551 334.537 197.035 328.187 197.035C321.837 197.035 315.747 199.551 311.257 204.03C306.767 208.508 304.244 214.582 304.244 220.916C304.235 221.957 304.305 222.999 304.454 224.03H224.651C224.805 222.999 224.88 221.958 224.874 220.916C224.949 217.732 224.385 214.565 223.215 211.602C222.045 208.638 220.293 205.938 218.061 203.66C215.83 201.382 213.165 199.572 210.222 198.336C207.279 197.1 204.118 196.463 200.925 196.463C197.732 196.463 194.571 197.1 191.629 198.336C188.686 199.572 186.02 201.382 183.789 203.66C181.558 205.938 179.806 208.638 178.636 211.602C177.466 214.565 176.902 217.732 176.976 220.916C176.971 221.958 177.045 222.999 177.199 224.03H74.241C74.241 224.03 74.241 223.86 74.136 223.533C73.362 219.738 68.9671 195.203 80.0134 177.565C80.0134 177.565 115.054 128.718 185.648 108.593C232.654 95.2201 278.151 97.7455 305.858 103.477C319.777 106.356 329.223 110.019 332.096 112.911C340.755 121.534 357.56 168.47 357.56 168.47Z" fill="#E62518"/>
<path d="M331.676 167.986H327.032C324.402 167.986 322.27 170.113 322.27 172.736V178.324C322.27 180.947 324.402 183.073 327.032 183.073H331.676C334.306 183.073 336.438 180.947 336.438 178.324V172.736C336.438 170.113 334.306 167.986 331.676 167.986Z" fill="url(#paint11_linear)"/>
<path d="M290.338 161.051V216.611L226.054 215.891C226.054 215.891 227.235 193.646 197.337 191.461L195.133 160.567L290.338 161.051Z" fill="url(#paint12_linear)"/>
<path d="M98.9834 161.051H176.294C176.294 161.051 219.272 99.028 303.785 107.167L318.426 106.447C318.426 106.447 215.468 73.4074 118.662 145.245L98.9834 161.051Z" fill="url(#paint13_linear)"/>
<path d="M188.049 161.051H290.378V111.472C290.378 111.472 229.348 107.167 188.049 161.051Z" fill="url(#paint14_linear)"/>
<path d="M297.776 111.001V160.332H348.193C348.193 160.332 330.666 122.019 325.143 118.904C319.62 115.79 297.776 111.001 297.776 111.001Z" fill="url(#paint15_linear)"/>
<path d="M305.858 104.197L305.701 104.537C305.701 104.537 237.481 97.8241 184.205 160.803C184.205 160.803 152.522 180.679 153.48 224.265H74.136C73.362 220.471 68.9671 195.936 80.0134 178.297C80.0134 178.297 115.054 129.451 185.648 109.326C232.654 95.9268 278.151 98.4653 305.858 104.197Z" fill="url(#paint16_linear)"/>
<path d="M77.8225 181.765C77.8225 181.765 84.7493 184.906 86.1924 190.833C86.8435 193.102 87.3258 195.416 87.6355 197.755L73.4932 193.254C73.4932 193.254 76.2875 183.021 77.8225 181.765Z" fill="#373744"/>
<path d="M163.45 183.204C163.45 183.204 148.324 181.228 144.532 188.582C140.741 195.936 140.597 198.645 140.597 198.645C140.597 198.645 157.888 194.51 160.774 192.534C163.66 190.558 172.988 183.374 163.45 183.204Z" fill="#373744"/>
<path d="M86.6123 182.956L91.7812 198.645L106.789 208.223L118.793 207.739L136.071 198.043L144.966 182.485L86.6123 182.956Z" fill="#373744"/>
<path d="M195.946 150.623C199.147 147.456 203.529 145.781 207.898 144.656C211.519 143.727 215.677 143.216 218.747 145.349C219.841 146.186 220.739 147.25 221.378 148.468C222.017 149.686 222.382 151.029 222.447 152.402C222.549 155.153 222.103 157.898 221.135 160.476C220.824 161.778 220.172 162.974 219.246 163.943C217.891 164.901 216.262 165.397 214.602 165.356C206.664 165.786 198.706 165.712 190.777 165.134C187.157 164.951 186.724 161.091 188.901 158.84C191.46 156.249 193.388 153.148 195.946 150.623Z" fill="#373744"/>
<path d="M195.789 150.806C198.99 147.639 203.372 145.951 207.741 144.839C211.375 143.91 215.52 143.4 218.59 145.519C219.685 146.359 220.584 147.425 221.225 148.645C221.866 149.865 222.234 151.21 222.303 152.585C222.397 155.336 221.952 158.079 220.991 160.659C220.678 161.959 220.021 163.152 219.089 164.113C217.74 165.075 216.115 165.576 214.458 165.54C206.519 165.963 198.562 165.888 190.633 165.317C186.999 165.134 186.567 161.274 188.744 159.023C191.276 156.432 193.165 153.331 195.789 150.806Z" fill="url(#paint17_linear)"/>
<path d="M172.057 214.805H76.3269C73.1245 214.805 70.5283 217.394 70.5283 220.589V221.23C70.5283 224.424 73.1245 227.013 76.3269 227.013H172.057C175.259 227.013 177.855 224.424 177.855 221.23V220.589C177.855 217.394 175.259 214.805 172.057 214.805Z" fill="#373744"/>
<path d="M172.057 214.805H76.3269C73.1245 214.805 70.5283 217.394 70.5283 220.589V221.23C70.5283 224.424 73.1245 227.013 76.3269 227.013H172.057C175.259 227.013 177.855 224.424 177.855 221.23V220.589C177.855 217.394 175.259 214.805 172.057 214.805Z" fill="url(#paint18_linear)"/>
<path d="M150.555 214.805H75.6972C72.8425 214.805 70.5283 217.113 70.5283 219.96V221.858C70.5283 224.705 72.8425 227.013 75.6972 227.013H150.555C153.409 227.013 155.724 224.705 155.724 221.858V219.96C155.724 217.113 153.409 214.805 150.555 214.805Z" fill="url(#paint19_linear)"/>
<path d="M301.122 215.891H226.015C223.284 215.891 221.069 218.1 221.069 220.824V221.74C221.069 224.465 223.284 226.673 226.015 226.673H301.122C303.853 226.673 306.068 224.465 306.068 221.74V220.824C306.068 218.1 303.853 215.891 301.122 215.891Z" fill="#373744"/>
<path d="M301.122 215.891H226.015C223.284 215.891 221.069 218.1 221.069 220.824V221.74C221.069 224.465 223.284 226.673 226.015 226.673H301.122C303.853 226.673 306.068 224.465 306.068 221.74V220.824C306.068 218.1 303.853 215.891 301.122 215.891Z" fill="url(#paint20_linear)"/>
<path d="M284.094 169.543H266.803V174.568H284.094V169.543Z" fill="url(#paint21_linear)"/>
<path d="M458.276 68.252H459.745C466.997 68.252 473.953 71.1245 479.082 76.2382C484.211 81.3518 487.095 88.2878 487.098 95.5213V239.588H430.909V95.5213C430.911 91.9385 431.62 88.3912 432.996 85.0818C434.373 81.7724 436.389 78.7657 438.93 76.2335C441.471 73.7013 444.488 71.6932 447.807 70.3237C451.126 68.9542 454.683 68.2502 458.276 68.252Z" fill="#373744"/>
<path d="M458.275 68H459.744C466.996 68 473.952 70.8726 479.081 75.9862C484.21 81.0998 487.094 88.0359 487.097 95.2693V239.336H430.908V95.2693C430.91 91.6866 431.619 88.1392 432.995 84.8298C434.372 81.5204 436.388 78.5138 438.929 75.9816C441.47 73.4494 444.487 71.4412 447.806 70.0717C451.125 68.7023 454.683 67.9983 458.275 68Z" fill="#898D8D" fill-opacity="0.7"/>
<path d="M463.195 145.48H454.34C450.884 145.48 448.082 148.275 448.082 151.722V156.236C448.082 159.683 450.884 162.478 454.34 162.478H463.195C466.651 162.478 469.453 159.683 469.453 156.236V151.722C469.453 148.275 466.651 145.48 463.195 145.48Z" fill="url(#paint22_linear)"/>
<path d="M498.026 232.404H420.229V245.332H498.026V232.404Z" fill="#373744"/>
<path d="M459.299 122.843C473.42 122.843 484.868 111.425 484.868 97.34C484.868 83.2552 473.42 71.8372 459.299 71.8372C445.177 71.8372 433.729 83.2552 433.729 97.34C433.729 111.425 445.177 122.843 459.299 122.843Z" fill="url(#paint23_linear)"/>
<path d="M412.66 216.925H376.648C373.413 216.921 370.312 215.638 368.024 213.357C365.737 211.075 364.451 207.982 364.447 204.755V183.924C364.444 182.39 363.832 180.919 362.746 179.834C361.659 178.748 360.187 178.134 358.649 178.127H334.509C334.073 178.155 333.635 178.094 333.223 177.946C332.811 177.799 332.434 177.568 332.115 177.27C331.796 176.971 331.541 176.61 331.367 176.21C331.193 175.809 331.104 175.378 331.104 174.941C331.104 174.505 331.193 174.073 331.367 173.672C331.541 173.272 331.796 172.911 332.115 172.612C332.434 172.314 332.811 172.084 333.223 171.936C333.635 171.789 334.073 171.727 334.509 171.755H358.649C361.881 171.762 364.979 173.047 367.263 175.328C369.548 177.609 370.833 180.7 370.836 183.924V204.755C370.84 206.291 371.453 207.762 372.543 208.846C373.632 209.93 375.109 210.539 376.648 210.539H412.66C414.199 210.539 415.675 209.93 416.765 208.846C417.854 207.762 418.468 206.291 418.471 204.755C418.475 201.529 419.761 198.436 422.049 196.154C424.336 193.873 427.437 192.59 430.672 192.586H449.997C451.537 192.583 453.013 191.971 454.102 190.885C455.191 189.798 455.805 188.326 455.808 186.79V153.92C455.86 153.11 456.22 152.351 456.813 151.795C457.406 151.24 458.189 150.931 459.003 150.931C459.816 150.931 460.599 151.24 461.193 151.795C461.786 152.351 462.145 153.11 462.197 153.92V186.79C462.194 190.016 460.907 193.109 458.62 195.391C456.333 197.672 453.231 198.955 449.997 198.959H430.62C429.079 198.962 427.603 199.574 426.514 200.66C425.425 201.747 424.811 203.219 424.808 204.755C424.805 207.973 423.525 211.058 421.249 213.338C418.973 215.618 415.885 216.907 412.66 216.925Z" fill="#373744"/>
<path d="M412.66 216.925H376.648C373.413 216.921 370.312 215.638 368.024 213.357C365.737 211.075 364.451 207.982 364.447 204.755V183.924C364.444 182.39 363.832 180.919 362.746 179.834C361.659 178.748 360.187 178.134 358.649 178.127H334.509C334.073 178.155 333.635 178.094 333.223 177.946C332.811 177.799 332.434 177.568 332.115 177.27C331.796 176.971 331.541 176.61 331.367 176.21C331.193 175.809 331.104 175.378 331.104 174.941C331.104 174.505 331.193 174.073 331.367 173.672C331.541 173.272 331.796 172.911 332.115 172.612C332.434 172.314 332.811 172.084 333.223 171.936C333.635 171.789 334.073 171.727 334.509 171.755H358.649C361.881 171.762 364.979 173.047 367.263 175.328C369.548 177.609 370.833 180.7 370.836 183.924V204.755C370.84 206.291 371.453 207.762 372.543 208.846C373.632 209.93 375.109 210.539 376.648 210.539H412.66C414.199 210.539 415.675 209.93 416.765 208.846C417.854 207.762 418.468 206.291 418.471 204.755C418.475 201.529 419.761 198.436 422.049 196.154C424.336 193.873 427.437 192.59 430.672 192.586H449.997C451.537 192.583 453.013 191.971 454.102 190.885C455.191 189.798 455.805 188.326 455.808 186.79V153.92C455.86 153.11 456.22 152.351 456.813 151.795C457.406 151.24 458.189 150.931 459.003 150.931C459.816 150.931 460.599 151.24 461.193 151.795C461.786 152.351 462.145 153.11 462.197 153.92V186.79C462.194 190.016 460.907 193.109 458.62 195.391C456.333 197.672 453.231 198.955 449.997 198.959H430.62C429.079 198.962 427.603 199.574 426.514 200.66C425.425 201.747 424.811 203.219 424.808 204.755C424.805 207.973 423.525 211.058 421.249 213.338C418.973 215.618 415.885 216.907 412.66 216.925Z" fill="url(#paint24_linear)"/>
<path d="M336.779 169.491H331.597C329.199 169.491 327.255 171.43 327.255 173.822V175.576C327.255 177.968 329.199 179.907 331.597 179.907H336.779C339.178 179.907 341.122 177.968 341.122 175.576V173.822C341.122 171.43 339.178 169.491 336.779 169.491Z" fill="#373744"/>
<path d="M336.779 169.491H331.597C329.199 169.491 327.255 171.43 327.255 173.822V175.576C327.255 177.968 329.199 179.907 331.597 179.907H336.779C339.178 179.907 341.122 177.968 341.122 175.576V173.822C341.122 171.43 339.178 169.491 336.779 169.491Z" fill="url(#paint25_linear)"/>
<path d="M459.311 82.7862L452.279 96.9705H457.684L454.444 110.265L466.146 95.361L461.108 94.9946L468.494 82.603L459.311 82.7862Z" fill="white"/>
<path d="M72.4697 258.405C70.6461 259.36 68.5339 261.022 69.2161 263.01C69.5254 263.753 70.0452 264.39 70.7117 264.842C76.4054 269.318 84.1719 269.959 91.4529 270.22C139.823 272.262 188.259 269.383 236.576 266.504C238.59 266.57 240.58 266.057 242.309 265.026C243.923 263.835 244.618 261.218 243.175 259.792C272.911 260.393 302.687 260.215 332.503 259.255C336.622 259.124 341.686 258.365 343.09 254.505C344.284 251.312 341.988 247.675 338.931 246.157C335.874 244.639 332.293 244.691 328.869 244.783C292.398 245.777 255.909 246.318 219.403 246.406C201.255 246.406 183.111 246.318 164.972 246.144C147.917 245.961 129.761 247.23 112.824 244.835C110.672 244.521 107.773 243.16 105.726 244.547C104.152 245.607 104.795 247.897 103.798 248.826C102.197 250.318 100.61 250.03 98.183 250.37C89.2111 251.547 80.5114 254.266 72.4697 258.405Z" fill="url(#paint26_linear)"/>
<path d="M61.2008 183.322C60.554 186.269 59.0482 188.959 56.8727 191.054C54.6971 193.15 51.949 194.557 48.9738 195.099C50.0256 195.664 50.9554 196.43 51.7102 197.354C52.4651 198.278 53.0301 199.341 53.373 200.482C53.7159 201.624 53.8301 202.822 53.7089 204.007C53.5877 205.193 53.2336 206.343 52.6668 207.392C52.1 208.441 51.3316 209.369 50.4054 210.121C49.4793 210.874 48.4135 211.438 47.269 211.78C46.1245 212.122 44.9236 212.236 43.735 212.115C42.5464 211.994 41.3932 211.641 40.3415 211.075C38.2162 209.859 36.4058 207.726 33.9262 207.739C32.6095 207.906 31.3289 208.286 30.1348 208.864C27.7157 209.659 25.1052 209.663 22.6839 208.875C20.2625 208.086 18.1571 206.547 16.6747 204.481C12.2667 207.359 6.10072 209.715 2.0994 206.313C1.9105 206.148 1.73092 205.973 1.56152 205.789C3.98855 191.867 8.93444 177.996 14.4838 165.068C20.3262 151.495 26.7982 138.222 33.9 125.25C35.2797 125.067 36.6803 125.111 38.0456 125.381C41.6403 126.049 45.1037 130.838 46.3762 133.939C47.3164 136.333 47.6745 138.915 47.4214 141.474C47.1683 144.032 46.3111 146.495 44.92 148.66C52.5947 150.923 57.2782 160.279 54.4838 167.751C57.0178 169.397 59.0075 171.753 60.2026 174.523C61.3977 177.294 61.745 180.355 61.2008 183.322Z" fill="#373744"/>
<path d="M61.2008 183.322C60.554 186.269 59.0482 188.959 56.8727 191.054C54.6971 193.15 51.949 194.557 48.9738 195.099C50.0256 195.664 50.9554 196.43 51.7102 197.354C52.4651 198.278 53.0301 199.341 53.373 200.482C53.7159 201.624 53.8301 202.822 53.7089 204.007C53.5877 205.193 53.2336 206.343 52.6668 207.392C52.1 208.441 51.3316 209.369 50.4054 210.121C49.4793 210.874 48.4135 211.438 47.269 211.78C46.1245 212.122 44.9236 212.236 43.735 212.115C42.5464 211.994 41.3932 211.641 40.3415 211.075C38.2162 209.859 36.4058 207.726 33.9262 207.739C32.6095 207.906 31.3289 208.286 30.1348 208.864C27.7157 209.659 25.1052 209.663 22.6839 208.875C20.2625 208.086 18.1571 206.547 16.6747 204.481C12.2667 207.359 6.10072 209.715 2.0994 206.313C1.9105 206.148 1.73092 205.973 1.56152 205.789C3.98855 191.867 8.93444 177.996 14.4838 165.068C20.3262 151.495 26.7982 138.222 33.9 125.25C35.2797 125.067 36.6803 125.111 38.0456 125.381C41.6403 126.049 45.1037 130.838 46.3762 133.939C47.3164 136.333 47.6745 138.915 47.4214 141.474C47.1683 144.032 46.3111 146.495 44.92 148.66C52.5947 150.923 57.2782 160.279 54.4838 167.751C57.0178 169.397 59.0075 171.753 60.2026 174.523C61.3977 177.294 61.745 180.355 61.2008 183.322Z" fill="url(#paint27_linear)"/>
<path d="M32.9556 183.322C28.7578 186.251 25.398 190.221 23.2078 194.84C21.0176 199.459 20.0727 204.568 20.4663 209.662C21.424 227.864 27.6687 247.504 27.6687 247.504H4.5791C4.5791 247.504 13.2639 214.451 9.42004 203.015C5.57615 191.579 5.34001 193.856 5.34001 193.856L11.8208 197.624L13.8018 174.987C13.8018 174.987 15.4286 185.455 15.4286 189.537C15.4286 193.62 31.4469 169.609 31.4469 169.609L19.6398 192.953L32.9556 183.322Z" fill="#373744"/>
<path d="M244.566 201.353C248.273 202.313 252.197 201.999 255.704 200.464C257.437 199.682 258.982 198.54 260.235 197.113C261.489 195.687 262.422 194.01 262.972 192.194C263.982 188.556 263.195 184.696 262.972 180.941C258.213 180.374 253.388 181.055 248.974 182.916C246.777 183.874 244.824 185.312 243.259 187.124C241.694 188.936 240.558 191.075 239.935 193.384C239.772 195.147 240.211 196.913 241.181 198.396C244.408 192.887 251.243 190.663 255.743 186.122C252.949 190.624 248.869 194.17 244.841 197.624C244.095 198.138 243.527 198.869 243.214 199.718C243.162 199.918 243.158 200.127 243.203 200.329C243.248 200.531 243.34 200.72 243.472 200.879C243.603 201.039 243.771 201.165 243.961 201.248C244.152 201.33 244.359 201.366 244.566 201.353Z" fill="#373744"/>
</g>
<defs>
<linearGradient id="paint0_linear" x1="-23.9553" y1="64.7581" x2="1364.14" y2="1001.83" gradientUnits="userSpaceOnUse">
<stop offset="0.01"/>
<stop offset="0.13" stop-opacity="0.69"/>
<stop offset="1" stop-opacity="0"/>
</linearGradient>
<linearGradient id="paint1_linear" x1="36488.9" y1="5949.95" x2="36504.7" y2="4056.19" gradientUnits="userSpaceOnUse">
<stop offset="0.01"/>
<stop offset="0.13" stop-opacity="0.69"/>
<stop offset="1" stop-opacity="0"/>
</linearGradient>
<linearGradient id="paint2_linear" x1="-91930.7" y1="4215.15" x2="-91930.7" y2="3914.4" gradientUnits="userSpaceOnUse">
<stop offset="0.01"/>
<stop offset="0.13" stop-opacity="0.69"/>
<stop offset="1" stop-opacity="0"/>
</linearGradient>
<linearGradient id="paint3_linear" x1="5377.92" y1="11560.7" x2="6562.16" y2="11512" gradientUnits="userSpaceOnUse">
<stop offset="0.01"/>
<stop offset="0.13" stop-opacity="0.69"/>
<stop offset="1" stop-opacity="0"/>
</linearGradient>
<linearGradient id="paint4_linear" x1="2150.81" y1="2680.13" x2="1808.41" y2="3275.64" gradientUnits="userSpaceOnUse">
<stop offset="0.01"/>
<stop offset="0.13" stop-opacity="0.69"/>
<stop offset="1" stop-opacity="0"/>
</linearGradient>
<linearGradient id="paint5_linear" x1="9136.33" y1="11497.5" x2="10320.6" y2="11448.7" gradientUnits="userSpaceOnUse">
<stop offset="0.01"/>
<stop offset="0.13" stop-opacity="0.69"/>
<stop offset="1" stop-opacity="0"/>
</linearGradient>
<linearGradient id="paint6_linear" x1="3506.57" y1="2658.72" x2="3164.17" y2="3254.24" gradientUnits="userSpaceOnUse">
<stop offset="0.01"/>
<stop offset="0.13" stop-opacity="0.69"/>
<stop offset="1" stop-opacity="0"/>
</linearGradient>
<linearGradient id="paint7_linear" x1="3111.06" y1="11560.7" x2="4294.88" y2="11512" gradientUnits="userSpaceOnUse">
<stop offset="0.01"/>
<stop offset="0.13" stop-opacity="0.69"/>
<stop offset="1" stop-opacity="0"/>
</linearGradient>
<linearGradient id="paint8_linear" x1="1333.35" y1="2680.13" x2="990.944" y2="3275.64" gradientUnits="userSpaceOnUse">
<stop offset="0.01"/>
<stop offset="0.13" stop-opacity="0.69"/>
<stop offset="1" stop-opacity="0"/>
</linearGradient>
<linearGradient id="paint9_linear" x1="6870.19" y1="11497.5" x2="8054.43" y2="11448.7" gradientUnits="userSpaceOnUse">
<stop offset="0.01"/>
<stop offset="0.13" stop-opacity="0.69"/>
<stop offset="1" stop-opacity="0"/>
</linearGradient>
<linearGradient id="paint10_linear" x1="2689.11" y1="2658.72" x2="2346.71" y2="3254.24" gradientUnits="userSpaceOnUse">
<stop offset="0.01"/>
<stop offset="0.13" stop-opacity="0.69"/>
<stop offset="1" stop-opacity="0"/>
</linearGradient>
<linearGradient id="paint11_linear" x1="3761.83" y1="2107.73" x2="4367.6" y2="2490.67" gradientUnits="userSpaceOnUse">
<stop offset="0.01"/>
<stop offset="0.13" stop-opacity="0.69"/>
<stop offset="1" stop-opacity="0"/>
</linearGradient>
<linearGradient id="paint12_linear" x1="17546.2" y1="15568" x2="18064.3" y2="10758.6" gradientUnits="userSpaceOnUse">
<stop offset="0.01"/>
<stop offset="0.13" stop-opacity="0.69"/>
<stop offset="1" stop-opacity="0"/>
</linearGradient>
<linearGradient id="paint13_linear" x1="34196" y1="8914.13" x2="34917.7" y2="18444.1" gradientUnits="userSpaceOnUse">
<stop offset="0.01"/>
<stop offset="0.13" stop-opacity="0.69"/>
<stop offset="1" stop-opacity="0"/>
</linearGradient>
<linearGradient id="paint14_linear" x1="19348.1" y1="6912.98" x2="19493.8" y2="14365.9" gradientUnits="userSpaceOnUse">
<stop offset="0.01"/>
<stop offset="0.13" stop-opacity="0.69"/>
<stop offset="1" stop-opacity="0"/>
</linearGradient>
<linearGradient id="paint15_linear" x1="13859.8" y1="7923.03" x2="11335.5" y2="11783.6" gradientUnits="userSpaceOnUse">
<stop offset="0.01"/>
<stop offset="0.13" stop-opacity="0.69"/>
<stop offset="1" stop-opacity="0"/>
</linearGradient>
<linearGradient id="paint16_linear" x1="37816.9" y1="35368" x2="36520.3" y2="16862.2" gradientUnits="userSpaceOnUse">
<stop offset="0.01"/>
<stop offset="0.13" stop-opacity="0.69"/>
<stop offset="1" stop-opacity="0"/>
</linearGradient>
<linearGradient id="paint17_linear" x1="5872.6" y1="4687.95" x2="5872.6" y2="4320.17" gradientUnits="userSpaceOnUse">
<stop offset="0.01"/>
<stop offset="0.13" stop-opacity="0.69"/>
<stop offset="1" stop-opacity="0"/>
</linearGradient>
<linearGradient id="paint18_linear" x1="12071.8" y1="2018.96" x2="12031.2" y2="2457.69" gradientUnits="userSpaceOnUse">
<stop offset="0.01"/>
<stop offset="0.13" stop-opacity="0.69"/>
<stop offset="1" stop-opacity="0"/>
</linearGradient>
<linearGradient id="paint19_linear" x1="7429.69" y1="2172.18" x2="7428.74" y2="2547.7" gradientUnits="userSpaceOnUse">
<stop offset="0.01"/>
<stop offset="0.13" stop-opacity="0.69"/>
<stop offset="1" stop-opacity="0"/>
</linearGradient>
<linearGradient id="paint20_linear" x1="17270.9" y1="1972.95" x2="17272.1" y2="2164.82" gradientUnits="userSpaceOnUse">
<stop offset="0.01"/>
<stop offset="0.13" stop-opacity="0.69"/>
<stop offset="1" stop-opacity="0"/>
</linearGradient>
<linearGradient id="paint21_linear" x1="3893.75" y1="748.838" x2="3894.56" y2="969.553" gradientUnits="userSpaceOnUse">
<stop offset="0.01"/>
<stop offset="0.13" stop-opacity="0.69"/>
<stop offset="1" stop-opacity="0"/>
</linearGradient>
<linearGradient id="paint22_linear" x1="7916.58" y1="2040.19" x2="7932.54" y2="2601.55" gradientUnits="userSpaceOnUse">
<stop offset="0.01"/>
<stop offset="0.13" stop-opacity="0.69"/>
<stop offset="1" stop-opacity="0"/>
</linearGradient>
<linearGradient id="paint23_linear" x1="18283.5" y1="5005.62" x2="18456.5" y2="1343.37" gradientUnits="userSpaceOnUse">
<stop offset="0.01"/>
<stop offset="0.13" stop-opacity="0.69"/>
<stop offset="1" stop-opacity="0"/>
</linearGradient>
<linearGradient id="paint24_linear" x1="40829.9" y1="13157.5" x2="40975.9" y2="21281.1" gradientUnits="userSpaceOnUse">
<stop offset="0.01"/>
<stop offset="0.13" stop-opacity="0.69"/>
<stop offset="1" stop-opacity="0"/>
</linearGradient>
<linearGradient id="paint25_linear" x1="3859.56" y1="1614.36" x2="3859.56" y2="1520" gradientUnits="userSpaceOnUse">
<stop offset="0.01"/>
<stop offset="0.13" stop-opacity="0.69"/>
<stop offset="1" stop-opacity="0"/>
</linearGradient>
<linearGradient id="paint26_linear" x1="45108" y1="6914.01" x2="45106.5" y2="8780.09" gradientUnits="userSpaceOnUse">
<stop offset="0.01"/>
<stop offset="0.13" stop-opacity="0.69"/>
<stop offset="1" stop-opacity="0"/>
</linearGradient>
<linearGradient id="paint27_linear" x1="12.3415" y1="17315.6" x2="6088.12" y2="18843.4" gradientUnits="userSpaceOnUse">
<stop offset="0.01"/>
<stop offset="0.13" stop-opacity="0.69"/>
<stop offset="1" stop-opacity="0"/>
</linearGradient>
<clipPath id="clip0">
<rect width="529" height="324" fill="white"/>
</clipPath>
</defs>
</svg>
