<svg width="211" height="250" viewBox="0 0 211 250" fill="none" xmlns="http://www.w3.org/2000/svg">
<g clip-path="url(#clip0)">
<path opacity="0.42" d="M204.632 195.754C199.878 210.579 191.427 224.673 179.676 234.636C178.064 235.991 176.395 237.273 174.669 238.482C171.752 240.514 168.661 242.283 165.431 243.766C163.215 244.781 160.941 245.663 158.621 246.408C155.344 247.462 151.993 248.271 148.596 248.826C147.971 248.938 147.336 249.035 146.707 249.121L146.041 249.213C132.39 251.042 118.049 249.436 104.362 246.957C87.3749 243.883 70.4179 239.503 55.2434 231.273C24.0363 214.359 2.52901 180.771 0.203072 145.338C-0.304774 137.686 0.0507191 129.913 2.05671 122.505C5.32724 110.373 12.5793 100.399 21.1111 91.1017C21.6494 90.5073 22.203 89.9129 22.7565 89.3286C30.7602 80.8388 39.7186 72.8519 47.5496 64.2097C48.3012 63.3798 49.0409 62.5449 49.7689 61.7049C49.8806 61.583 49.9872 61.456 50.099 61.3239L50.3986 60.9733L50.6728 60.6583C50.6728 60.6583 50.7033 60.6126 50.7236 60.5922C51.14 60.0842 51.5514 59.6066 51.9475 59.1087C52.9632 57.8792 53.9264 56.6225 54.8372 55.3388C54.9438 55.1915 55.0505 55.0441 55.152 54.8917C55.4669 54.4497 55.7716 54.0077 56.0712 53.5555C56.5689 52.8239 57.0514 52.0821 57.5186 51.3302C57.9384 50.6527 58.3481 49.9618 58.7476 49.2572C58.9964 48.8203 59.2554 48.3783 59.4738 47.9312C59.9512 47.0505 60.3981 46.1597 60.8145 45.2587C61.3579 44.1207 61.8556 42.9572 62.3381 41.7785C62.592 41.1078 62.8459 40.4524 63.1455 39.797C63.9036 38.0425 64.7511 36.3281 65.6848 34.6604C65.7007 34.6152 65.7229 34.5724 65.7508 34.5334C89.2641 -7.86993 165.659 -22.0958 200.137 55.5776C204.281 64.9057 205.794 75.1586 206.993 85.2894C208.852 100.982 210.084 116.732 210.69 132.54C211.513 153.807 211.122 175.492 204.632 195.754Z" fill="#373744"/>
<path d="M129.973 105.861C132.456 108.275 134.203 111.323 135.925 114.326L148.697 136.681C151.054 140.806 153.441 144.998 154.548 149.616C155.523 153.681 155.462 157.933 155.401 162.12L155.015 187.015C154.949 191.176 154.802 195.611 152.45 199.046C148.895 204.203 141.709 205.239 135.483 204.635C123.219 203.456 111.107 197.339 104.403 187.005C97.6994 176.671 97.3237 162.059 104.936 152.37C107.882 148.625 111.955 145.501 113.295 140.928C114.743 136.01 112.427 130.502 108.496 127.21C105.734 124.899 102.316 123.532 99.355 121.5C96.3943 119.467 93.7078 116.383 93.7687 112.781C93.9008 99.2868 122.944 99.0429 129.973 105.861Z" fill="#FCC5A7"/>
<path opacity="0.58" d="M129.75 131.529C129.44 137.717 130.379 143.905 132.512 149.723C130.262 149.377 128.632 147.492 126.972 145.933C125.311 144.373 122.96 142.981 120.877 143.865C122.018 145.867 122.496 148.179 122.244 150.47C121.522 147.695 118.389 145.48 115.738 146.563C114.067 147.248 113.062 148.94 111.675 150.078C110.289 151.216 107.76 151.542 106.983 149.906C113.031 145.363 115.276 137.392 116.48 129.918C117.348 124.533 117.815 106.893 126.174 107.716C135.514 108.64 130.044 125.915 129.75 131.529Z" fill="url(#paint0_linear)"/>
<path d="M123.701 34.5334H66.8529C63.5209 34.5334 60.8197 37.2358 60.8197 40.5693V134.74C60.8197 138.073 63.5209 140.776 66.8529 140.776H123.701C127.033 140.776 129.734 138.073 129.734 134.74V40.5693C129.734 37.2358 127.033 34.5334 123.701 34.5334Z" fill="#373744"/>
<path d="M121.629 34.5334H64.7808C61.4487 34.5334 58.7476 37.2358 58.7476 40.5693V134.74C58.7476 138.073 61.4487 140.776 64.7808 140.776H121.629C124.961 140.776 127.662 138.073 127.662 134.74V40.5693C127.662 37.2358 124.961 34.5334 121.629 34.5334Z" fill="#373744"/>
<path opacity="0.58" d="M121.629 34.5334H64.7808C61.4487 34.5334 58.7476 37.2358 58.7476 40.5693V134.74C58.7476 138.073 61.4487 140.776 64.7808 140.776H121.629C124.961 140.776 127.662 138.073 127.662 134.74V40.5693C127.662 37.2358 124.961 34.5334 121.629 34.5334Z" fill="url(#paint1_linear)"/>
<path d="M107.176 41.3162H94.9469C93.0986 41.3162 91.6002 42.8152 91.6002 44.6643V59.444C91.6002 61.2932 93.0986 62.7922 94.9469 62.7922H107.176C109.024 62.7922 110.523 61.2932 110.523 59.444V44.6643C110.523 42.8152 109.024 41.3162 107.176 41.3162Z" fill="#FDB523"/>
<path d="M99.3499 62.716H97.3439V56.5532C96.939 56.4847 96.5544 56.3271 96.218 56.0916C95.8816 55.8561 95.6018 55.5486 95.3988 55.1915L95.3023 54.9934V54.7698C95.3023 54.2618 95.1601 49.8162 95.3023 48.6324C95.4445 47.4486 96.7954 46.6255 97.6943 46.2546V41.3467H99.7257V47.7433L98.9944 47.9516C98.1869 48.1853 97.3947 48.6629 97.3134 48.8966C97.2271 49.618 97.2626 52.453 97.3134 54.3786C97.5934 54.572 97.9384 54.6468 98.2732 54.5869L99.3702 54.4853L99.3499 62.716Z" fill="#EFA92B"/>
<path d="M103.093 62.716H105.099V56.5532C105.503 56.484 105.886 56.326 106.222 56.0906C106.557 55.8551 106.836 55.548 107.039 55.1915L107.14 54.9934V54.7698C107.14 54.2618 107.283 49.8162 107.14 48.6324C106.998 47.4486 105.617 46.6255 104.748 46.2546V41.3467H102.742V47.7433L103.474 47.9516C104.281 48.1853 105.073 48.6629 105.15 48.8966C105.241 49.618 105.2 52.453 105.15 54.3786C104.868 54.5718 104.521 54.6466 104.185 54.5869L103.093 54.4853V62.716Z" fill="#EFA92B"/>
<path d="M101.483 41.3618H101.061V62.787H101.483V41.3618Z" fill="#EFA92B"/>
<path d="M94.8505 41.3618H94.429V62.787H94.8505V41.3618Z" fill="#EFA92B"/>
<path d="M108.12 41.3618H107.699V62.787H108.12V41.3618Z" fill="#EFA92B"/>
<path d="M100.941 77.395C100.05 77.2909 99.3618 76.9611 98.8757 76.4056C98.3936 75.854 98.1525 75.1191 98.1525 74.2011C98.1525 73.2059 98.5093 72.4074 99.2229 71.8056C99.9365 71.2077 100.891 70.9088 102.087 70.9088H102.897C103.68 70.9088 104.369 71.0476 104.963 71.3254C105.557 71.607 106.012 72.0043 106.328 72.5173C106.648 73.0303 106.809 73.6244 106.809 74.2994C106.809 75.1944 106.558 75.9118 106.056 76.4519C105.559 76.9919 104.868 77.3063 103.985 77.395V76.2783C104.656 76.1819 105.142 75.9716 105.443 75.6476C105.744 75.3274 105.894 74.8781 105.894 74.2994C105.894 73.5897 105.632 73.0323 105.107 72.6272C104.583 72.2261 103.836 72.0255 102.868 72.0255H102.052C101.138 72.0255 100.411 72.2164 99.8709 72.5983C99.3309 72.9802 99.0609 73.5145 99.0609 74.2011C99.0609 74.8183 99.1998 75.2908 99.4775 75.6187C99.7591 75.9504 100.247 76.1703 100.941 76.2783V77.395ZM101.676 82.0066V80.0277H98.2682V78.911H106.693V81.6999C106.693 82.6488 106.477 83.3779 106.045 83.8871C105.613 84.4001 104.984 84.6566 104.158 84.6566C103.634 84.6566 103.177 84.5139 102.787 84.2284C102.398 83.9469 102.106 83.5534 101.913 83.0481L98.3376 85.0269H98.2682V83.835L101.676 82.0066ZM102.585 80.0277V81.7346C102.585 82.2862 102.727 82.724 103.013 83.0481C103.298 83.376 103.68 83.5399 104.158 83.5399C104.679 83.5399 105.078 83.3837 105.356 83.0712C105.634 82.7626 105.775 82.3152 105.779 81.7288V80.0277H102.585ZM102.162 90.9809V87.3298H99.1766V91.571H98.2682V86.2189H106.693V91.5132H105.779V87.3298H103.071V90.9809H102.162ZM98.2682 92.9539H106.693V95.332C106.693 96.0649 106.531 96.713 106.207 97.2762C105.883 97.8394 105.422 98.2733 104.824 98.5781C104.226 98.8866 103.539 99.0429 102.764 99.0467H102.226C101.431 99.0467 100.735 98.8924 100.137 98.5838C99.5392 98.2791 99.0802 97.8413 98.76 97.2704C98.4398 96.7033 98.2759 96.0418 98.2682 95.2857V92.9539ZM105.779 94.0649H99.1766V95.2337C99.1766 96.09 99.4428 96.7554 99.9751 97.2299C100.507 97.7082 101.265 97.9474 102.249 97.9474H102.741C103.698 97.9474 104.44 97.7217 104.969 97.2704C105.501 96.8229 105.771 96.1865 105.779 95.361V94.0649ZM98.2682 101.922V100.812H106.693V101.922H98.2682ZM91.7786 77.0189V74.311H84.2682V73.2059H91.7786V70.5037H92.6928V77.0189H91.7786ZM72.9414 77.395C72.0503 77.2909 71.3618 76.9611 70.8757 76.4056C70.3936 75.854 70.1525 75.1191 70.1525 74.2011C70.1525 73.2059 70.5093 72.4074 71.2229 71.8056C71.9365 71.2077 72.8912 70.9088 74.087 70.9088H74.8971C75.6802 70.9088 76.3687 71.0476 76.9627 71.3254C77.5568 71.607 78.012 72.0043 78.3283 72.5173C78.6484 73.0303 78.8085 73.6244 78.8085 74.2994C78.8085 75.1944 78.5578 75.9118 78.0563 76.4519C77.5587 76.9919 76.8682 77.3063 75.9849 77.395V76.2783C76.6561 76.1819 77.1421 75.9716 77.443 75.6476C77.7439 75.3274 77.8943 74.8781 77.8943 74.2994C77.8943 73.5897 77.632 73.0323 77.1074 72.6272C76.5828 72.2261 75.8364 72.0255 74.8682 72.0255H74.0523C73.1381 72.0255 72.411 72.2164 71.8709 72.5983C71.3309 72.9802 71.0609 73.5145 71.0609 74.2011C71.0609 74.8183 71.1998 75.2908 71.4775 75.6187C71.7591 75.9504 72.247 76.1703 72.9414 76.2783V77.395ZM72.4669 83.5688V80.0393L70.2682 79.2466V78.1009L78.6928 81.318V82.2901L70.2682 85.513V84.3731L72.4669 83.5688ZM73.3811 80.3749V83.239L77.3215 81.8041L73.3811 80.3749ZM73.6762 89.7368V87.758H70.2682V86.6413H78.6928V89.4302C78.6928 90.3791 78.4768 91.1082 78.0448 91.6173C77.6127 92.1304 76.984 92.3869 76.1585 92.3869C75.6339 92.3869 75.1768 92.2442 74.7872 91.9587C74.3976 91.6771 74.1063 91.2837 73.9135 90.7783L70.3376 92.7572H70.2682V91.5653L73.6762 89.7368ZM74.5846 87.758V89.4649C74.5846 90.0165 74.7274 90.4543 75.0128 90.7783C75.2983 91.1062 75.6802 91.2702 76.1585 91.2702C76.6792 91.2702 77.0785 91.1139 77.3562 90.8015C77.6339 90.4929 77.7747 90.0454 77.7786 89.4591V87.758H74.5846ZM70.2682 93.9491H78.6928V96.3272C78.6928 97.0602 78.5308 97.7082 78.2068 98.2714C77.8827 98.8346 77.4218 99.2685 76.8239 99.5733C76.226 99.8819 75.5394 100.038 74.764 100.042H74.2259C73.4313 100.042 72.735 99.8876 72.1371 99.5791C71.5392 99.2743 71.0802 98.8365 70.76 98.2656C70.4398 97.6986 70.2759 97.037 70.2682 96.281V93.9491ZM77.7786 95.0601H71.1766V96.2289C71.1766 97.0852 71.4428 97.7506 71.9751 98.2251C72.5074 98.7034 73.2654 98.9426 74.249 98.9426H74.7409C75.6975 98.9426 76.4401 98.7169 76.9685 98.2656C77.5009 97.8181 77.7709 97.1817 77.7786 96.3562V95.0601Z" fill="#373744"/>
<path d="M73.0864 36.9339L18.465 52.6961C15.2634 53.6199 13.4167 56.9654 14.3402 60.1683L40.4278 150.65C41.3513 153.853 44.6953 155.7 47.8968 154.776L102.518 139.014C105.72 138.09 107.567 134.745 106.643 131.542L80.5554 41.0605C79.6319 37.8575 76.2879 36.01 73.0864 36.9339Z" fill="#373744"/>
<path d="M71.0938 37.5039L16.4724 53.2661C13.2709 54.19 11.4242 57.5354 12.3476 60.7384L38.4353 151.22C39.3587 154.423 42.7027 156.27 45.9042 155.347L100.526 139.584C103.727 138.66 105.574 135.315 104.65 132.112L78.5628 41.6305C77.6393 38.4276 74.2954 36.5801 71.0938 37.5039Z" fill="#373744"/>
<path opacity="0.58" d="M100.533 139.571L45.9144 155.321C44.3771 155.76 42.7287 155.572 41.3291 154.799C39.9295 154.026 38.8924 152.731 38.444 151.196L12.3509 60.7192C11.9139 59.1797 12.1054 57.5297 12.8833 56.1313C13.6612 54.733 14.9619 53.7006 16.5 53.2607L41.5216 46.0411L71.0935 37.4954C72.6316 37.0525 74.2825 37.2382 75.684 38.0116C77.0854 38.785 78.123 40.0831 78.569 41.6209L104.657 132.098C105.1 133.636 104.914 135.287 104.141 136.688C103.368 138.089 102.07 139.126 100.533 139.571Z" fill="url(#paint2_linear)"/>
<path opacity="0.58" d="M69.7477 148.331L44.7261 155.55C43.3393 155.663 41.9561 155.293 40.8111 154.502C39.6661 153.712 38.8298 152.549 38.444 151.211L12.3509 60.7193C11.9139 59.1798 12.1054 57.5298 12.8833 56.1315C13.6612 54.7331 14.9619 53.7007 16.5 53.2609L41.5216 46.0412C42.9088 45.9288 44.2923 46.2992 45.438 47.0898C46.5836 47.8805 47.4211 49.0428 47.8087 50.3801L73.8866 140.857C74.1061 141.62 74.1732 142.418 74.0839 143.207C73.9947 143.995 73.7508 144.758 73.3664 145.452C72.982 146.147 72.4645 146.758 71.8435 147.252C71.2226 147.746 70.5104 148.112 69.7477 148.331Z" fill="url(#paint3_linear)"/>
<path d="M59.0932 48.0281L47.3433 51.4187C45.5674 51.9312 44.543 53.787 45.0552 55.5637L49.1496 69.7644C49.6618 71.5411 51.5168 72.566 53.2927 72.0535L65.0426 68.6628C66.8185 68.1503 67.843 66.2946 67.3307 64.5179L63.2363 50.3171C62.7241 48.5404 60.8691 47.5156 59.0932 48.0281Z" fill="#FDB523"/>
<path d="M57.4983 70.7535L55.5736 71.3124L53.8622 65.3883C53.4554 65.4334 53.0437 65.388 52.6566 65.2554C52.2694 65.1227 51.9163 64.9062 51.6226 64.6212L51.4702 64.4535L51.4042 64.2401C51.2518 63.7625 49.8806 59.5202 49.708 58.3414C49.5353 57.1627 50.5916 55.9992 51.3534 55.3946L50.0178 50.6798L51.9425 50.126L53.7149 56.2685L53.0648 56.6546C52.3539 57.1017 51.7241 57.7876 51.714 58.0315C51.8308 58.7479 52.6484 61.461 53.2375 63.3002C53.5626 63.406 53.9162 63.3804 54.2227 63.2291L55.2384 62.8328L57.4983 70.7535Z" fill="#EFA92B"/>
<path d="M61.099 69.717L63.0238 69.1582L61.3174 63.2595C61.6868 63.082 62.012 62.8244 62.2694 62.5054C62.5268 62.1863 62.7099 61.8139 62.8054 61.4152L62.846 61.1967L62.7901 60.9783C62.6632 60.4702 61.551 56.1821 61.0838 55.0847C60.6166 53.9873 59.0879 53.5605 58.123 53.469L56.7671 48.7542L54.8373 49.3079L56.6198 55.4251H57.3816C58.2195 55.4251 59.1133 55.669 59.2555 55.8722C59.5399 56.5378 60.2712 59.2762 60.7791 61.1409C60.5613 61.4028 60.2495 61.5688 59.9107 61.6032L58.834 61.8115L61.099 69.717Z" fill="#EFA92B"/>
<path d="M53.6357 49.6527L53.2307 49.7695L59.1661 70.3555L59.5711 70.2386L53.6357 49.6527Z" fill="#EFA92B"/>
<path d="M47.2597 51.4913L46.8547 51.6082L52.7901 72.1941L53.1951 72.0772L47.2597 51.4913Z" fill="#EFA92B"/>
<path d="M60.0105 47.8104L59.6055 47.9272L65.5408 68.5132L65.9458 68.3963L60.0105 47.8104Z" fill="#EFA92B"/>
<path d="M63.1001 84.4056C62.2156 84.5552 61.4623 84.4314 60.8402 84.0343C60.223 83.6398 59.7859 83.0018 59.5289 82.1205C59.2504 81.165 59.3694 80.2985 59.886 79.5209C60.4037 78.747 61.2366 78.1926 62.3845 77.8576L63.1621 77.6307C63.9138 77.4114 64.6137 77.3518 65.2617 77.452C65.9108 77.556 66.4589 77.8099 66.9062 78.2139C67.3571 78.6167 67.677 79.1422 67.866 79.7902C68.1164 80.6494 68.0766 81.4084 67.7463 82.0673C67.4198 82.7252 66.8449 83.2204 66.0218 83.553L65.7092 82.4809C66.3266 82.2003 66.7343 81.8624 66.9324 81.467C67.1317 81.0754 67.1503 80.6018 66.9884 80.0463C66.7897 79.3649 66.3819 78.9033 65.7649 78.6614C65.149 78.4232 64.3764 78.4397 63.4469 78.7109L62.6637 78.9394C61.7861 79.1955 61.1415 79.5825 60.73 80.1004C60.3185 80.6183 60.2088 81.2068 60.401 81.866C60.5737 82.4585 60.8393 82.8733 61.1977 83.1103C61.5608 83.3499 62.0908 83.4243 62.7876 83.3335L63.1001 84.4056ZM65.0963 88.627L64.5424 86.7272L61.2708 87.6818L60.9582 86.6097L69.0456 84.2499L69.8262 86.9273C70.0918 87.8383 70.0885 88.5988 69.8162 89.2086C69.5451 89.8222 69.0133 90.2445 68.2209 90.4758C67.7172 90.6227 67.2385 90.6137 66.7846 90.4488C66.3318 90.2876 65.9421 89.9915 65.6155 89.5604L62.7367 92.4618L62.67 92.4812L62.3364 91.3369L65.0963 88.627ZM65.4145 86.4727L65.8922 88.1114C66.0466 88.641 66.3061 89.0213 66.6709 89.2524C67.0366 89.4872 67.4491 89.5377 67.9083 89.4037C68.4082 89.2578 68.7477 88.996 68.9269 88.6182C69.1071 88.2442 69.1171 87.7752 68.9567 87.2112L68.4805 85.5781L65.4145 86.4727ZM68.0746 97.1064L67.0527 93.6013L64.1866 94.4376L65.3737 98.5093L64.5016 98.7638L63.0036 93.6255L71.091 91.2657L72.5728 96.3484L71.6952 96.6045L70.5243 92.5883L67.9248 93.3468L68.9467 96.852L68.0746 97.1064ZM64.8887 100.091L72.976 97.7316L73.6416 100.015C73.8468 100.718 73.8726 101.386 73.7192 102.017C73.5658 102.649 73.2447 103.194 72.7561 103.654C72.2685 104.118 71.6531 104.46 70.9098 104.681L70.3933 104.832C69.6304 105.055 68.9189 105.102 68.2585 104.973C67.5993 104.848 67.0361 104.556 66.5689 104.098C66.1029 103.643 65.7604 103.054 65.5413 102.33L64.8887 100.091ZM72.4094 99.0542L66.0717 100.903L66.3988 102.026C66.6385 102.848 67.0802 103.412 67.7241 103.718C68.3689 104.028 69.1635 104.046 70.1078 103.77L70.5799 103.632C71.4983 103.364 72.1479 102.94 72.5289 102.358C72.9147 101.78 72.9958 101.093 72.7721 100.298L72.4094 99.0542ZM67.3989 108.701L67.0879 107.635L75.1753 105.275L75.4862 106.342L67.3989 108.701ZM54.1989 86.6111L53.441 84.0114L46.2312 86.1152L45.9219 85.0542L53.1317 82.9504L52.3754 80.3563L53.253 80.1002L55.0765 86.355L54.1989 86.6111ZM36.221 92.2487C35.3365 92.3983 34.5832 92.2746 33.9612 91.8774C33.3439 91.4829 32.9068 90.845 32.6498 89.9636C32.3713 89.0082 32.4903 88.1417 33.007 87.3641C33.5247 86.5902 34.3575 86.0357 35.5054 85.7008L36.283 85.4739C37.0348 85.2545 37.7346 85.195 38.3826 85.2952C39.0317 85.3991 39.5798 85.6531 40.0271 86.057C40.478 86.4599 40.798 86.9853 40.9869 87.6334C41.2374 88.4925 41.1975 89.2516 40.8673 89.9105C40.5407 90.5683 39.9659 91.0636 39.1427 91.3962L38.8302 90.3241C39.4475 90.0435 39.8552 89.7055 40.0534 89.3102C40.2526 88.9185 40.2712 88.445 40.1093 87.8895C39.9106 87.2081 39.5028 86.7464 38.8858 86.5045C38.27 86.2663 37.4973 86.2829 36.5678 86.5541L35.7846 86.7826C34.907 87.0387 34.2625 87.4257 33.8509 87.9436C33.4394 88.4614 33.3297 89.05 33.5219 89.7092C33.6946 90.3017 33.9602 90.7164 34.3186 90.9534C34.6818 91.193 35.2117 91.2674 35.9085 91.1766L36.221 92.2487ZM37.4935 98.3087L36.5057 94.9202L34.1731 94.7751L33.8524 93.6752L42.8402 94.4039L43.1123 95.3371L35.927 100.791L35.6079 99.6967L37.4935 98.3087ZM37.4772 94.9863L38.2789 97.736L41.6598 95.2546L37.4772 94.9863ZM40.3808 103.891L39.8269 101.992L36.5553 102.946L36.2428 101.874L44.3301 99.5144L45.1107 102.192C45.3763 103.103 45.373 103.863 45.1008 104.473C44.8296 105.087 44.2978 105.509 43.5054 105.74C43.0018 105.887 42.523 105.878 42.0691 105.713C41.6163 105.552 41.2266 105.256 40.9 104.825L38.0212 107.726L37.9546 107.746L37.6209 106.601L40.3808 103.891ZM40.699 101.737L41.1767 103.376C41.3311 103.905 41.5907 104.286 41.9554 104.517C42.3212 104.752 42.7337 104.802 43.1928 104.668C43.6927 104.522 44.0323 104.26 44.2114 103.883C44.3917 103.509 44.4016 103.04 44.2412 102.476L43.7651 100.843L40.699 101.737ZM38.2882 108.89L46.3755 106.53L47.0411 108.813C47.2462 109.517 47.2721 110.184 47.1187 110.816C46.9652 111.447 46.6442 111.993 46.1555 112.453C45.6679 112.917 45.0525 113.259 44.3093 113.48L43.7927 113.631C43.0299 113.853 42.3183 113.9 41.658 113.771C40.9987 113.646 40.4356 113.355 39.9684 112.896C39.5024 112.441 39.1598 111.852 38.9408 111.129L38.2882 108.89ZM45.8088 107.853L39.4712 109.702L39.7983 110.824C40.038 111.646 40.4797 112.211 41.1235 112.517C41.7684 112.827 42.563 112.844 43.5073 112.569L43.9794 112.431C44.8977 112.163 45.5474 111.738 45.9284 111.157C46.3142 110.578 46.3952 109.892 46.1716 109.097L45.8088 107.853Z" fill="#373744"/>
<path d="M84.1196 151.663C84.1196 151.663 70.7023 127.083 74.5162 124.543C78.3302 122.002 88.9188 121.855 92.2909 128.074C95.663 134.293 94.8301 138.952 96.5263 140.776C98.2225 142.599 103.728 146.872 103.728 146.872L117.003 155.916C117.003 155.916 120.05 192.644 109.517 190.383C98.9843 188.122 84.1196 151.663 84.1196 151.663Z" fill="#FCC5A7"/>
<path d="M179.676 234.636C178.064 235.991 176.395 237.273 174.669 238.482C171.752 240.514 168.661 242.283 165.431 243.766C163.215 244.781 160.941 245.663 158.621 246.408C155.344 247.462 151.993 248.271 148.596 248.826C147.971 248.938 147.336 249.035 146.707 249.121L146.041 249.212C145.341 246.276 144.828 242.669 144.046 240.331C144.005 240.22 143.964 240.108 143.929 239.991C143.695 239.305 143.462 238.624 143.218 237.959C142.974 237.293 142.751 236.648 142.502 235.987C142.231 235.246 141.953 234.506 141.669 233.767C141.405 233.071 141.136 232.375 140.851 231.684C140.623 231.09 140.384 230.505 140.135 229.916C139.81 229.129 139.475 228.341 139.119 227.554C138.82 226.868 138.52 226.187 138.215 225.521C137.911 224.856 137.606 224.175 137.291 223.489C136.976 222.803 136.682 222.173 136.367 221.523C136.143 221.066 135.925 220.608 135.697 220.156L135.595 219.948C135.407 219.557 135.209 219.165 135.016 218.779L134.711 218.18C134.503 217.773 134.3 217.372 134.087 216.97C133.833 216.462 133.579 215.954 133.3 215.472C130.42 210.076 127.713 206.403 126.439 202.872C126.393 202.755 126.357 202.643 126.317 202.526C124.976 198.462 125.626 194.56 130.258 188.392C137.631 178.555 145.884 169.263 154.35 160.356C152.862 161.921 153.984 169.212 155.172 175.248C155.858 178.723 156.569 181.782 156.808 183.082C157.923 189.197 159.58 195.201 161.759 201.022C164.837 209.106 175.913 223.301 179.676 234.636Z" fill="#FCC5A7"/>
<path opacity="0.58" d="M159.388 244.467L158.621 246.408C155.344 247.462 151.993 248.271 148.596 248.826C147.971 248.938 147.336 249.035 146.707 249.121C146.666 248.918 146.62 248.75 146.58 248.613C145.808 245.839 144.961 243.084 144.04 240.347C144 240.235 143.959 240.123 143.924 240.006L143.213 237.974C142.979 237.319 142.74 236.663 142.497 236.003C142.226 235.261 141.948 234.521 141.664 233.783C141.395 233.087 141.125 232.39 140.846 231.7C140.612 231.105 140.374 230.521 140.13 229.931C139.805 229.144 139.47 228.356 139.114 227.569L138.21 225.537C137.911 224.866 137.601 224.195 137.286 223.504C136.971 222.813 136.677 222.188 136.362 221.538C136.143 221.081 135.92 220.624 135.691 220.171L135.59 219.963C135.402 219.572 135.204 219.181 135.011 218.795L134.706 218.195C134.503 217.789 134.295 217.387 134.082 216.986C133.828 216.478 133.574 215.97 133.294 215.487C130.415 210.091 127.708 206.418 126.433 202.887C126.388 202.77 126.352 202.658 126.312 202.542C128.851 202.542 136.291 202.755 140.023 204.62C140.108 204.663 140.189 204.713 140.267 204.767C145.061 208.11 159.388 244.467 159.388 244.467Z" fill="url(#paint4_linear)"/>
<path d="M82.8753 137.387C84.1094 136.711 85.1251 135.466 85.1302 134.064C85.0699 133.214 84.8274 132.388 84.4192 131.641C83.5406 129.725 82.469 127.673 80.5291 126.849C79.0665 126.23 77.4058 126.443 75.8366 126.667C75.2729 126.748 74.6177 126.89 74.374 127.408C74.2691 127.682 74.2393 127.978 74.2876 128.267C74.5402 131.476 75.4312 134.603 76.9081 137.463C77.9492 139.47 81.2908 138.261 82.8753 137.387Z" fill="#FDE2D1"/>
</g>
<defs>
<linearGradient id="paint0_linear" x1="112.269" y1="82.1395" x2="128.667" y2="199.684" gradientUnits="userSpaceOnUse">
<stop offset="0.01"/>
<stop offset="0.13" stop-opacity="0.69"/>
<stop offset="1" stop-opacity="0"/>
</linearGradient>
<linearGradient id="paint1_linear" x1="17042.1" y1="-1563.35" x2="-8864.24" y2="48537.3" gradientUnits="userSpaceOnUse">
<stop offset="0.01"/>
<stop offset="0.13" stop-opacity="0.69"/>
<stop offset="1" stop-opacity="0"/>
</linearGradient>
<linearGradient id="paint2_linear" x1="5240.72" y1="26562.3" x2="34498.1" y2="19888.1" gradientUnits="userSpaceOnUse">
<stop offset="0.01"/>
<stop offset="0.13" stop-opacity="0.69"/>
<stop offset="1" stop-opacity="0"/>
</linearGradient>
<linearGradient id="paint3_linear" x1="31.3415" y1="26692.7" x2="18155.9" y2="23495" gradientUnits="userSpaceOnUse">
<stop offset="0.01"/>
<stop offset="0.13" stop-opacity="0.69"/>
<stop offset="1" stop-opacity="0"/>
</linearGradient>
<linearGradient id="paint4_linear" x1="12409.8" y1="18048.1" x2="9663.16" y2="21280.3" gradientUnits="userSpaceOnUse">
<stop offset="0.01"/>
<stop offset="0.13" stop-opacity="0.69"/>
<stop offset="1" stop-opacity="0"/>
</linearGradient>
<clipPath id="clip0">
<rect width="211" height="250" fill="white"/>
</clipPath>
</defs>
</svg>
